<svg width="1569" height="154" viewBox="0 0 1569 154" fill="none" xmlns="http://www.w3.org/2000/svg">
<path d="M109.714 140.6C106.914 150 105.714 152 100.914 152H0.314063V150H4.31406C13.1141 150 17.1141 145.8 17.1141 134.8V20.2C17.1141 8.39999 13.1141 4 4.31406 4H0.314063V1.99999H77.9141C87.7141 1.99999 98.3141 1.59999 106.514 0.999989V33.6H104.514V29.6C104.514 17.6 97.1141 9.19999 72.5141 9.19999H71.1141C60.1141 9.19999 52.9141 10.4 48.9141 13V70.2H68.5141C88.1141 70.2 93.9141 65 95.1141 53.4L95.5141 49.2H97.3141V51.2C97.3141 58.6 96.7141 68 96.7141 74.6C96.7141 81.2 97.3141 90.6 97.3141 98V100H95.5141L95.1141 95.8C93.9141 84.2 88.1141 78.8 68.5141 78.8H48.9141V141.6C52.9141 143.6 59.3141 144.6 68.9141 144.6H69.9141C102.114 144.6 110.114 132 115.314 113.8L117.514 114.4L109.714 140.6ZM254.248 145.4C246.248 148.6 231.048 154 214.448 154C166.248 154 128.648 125.8 128.648 77C128.648 28.2 166.448 -1.00136e-05 214.448 -1.00136e-05C230.248 -1.00136e-05 243.248 3.2 255.248 7L257.448 1.99999H259.248C258.048 21 257.448 28.8 258.648 47.6H256.448C256.448 21.4 239.848 7.39999 214.448 7.39999C182.448 7.39999 163.648 35.6 163.648 77C163.648 118.4 182.248 146.6 214.448 146.6C238.248 146.6 254.248 135.4 263.048 108.2L265.048 108.8L254.248 145.4ZM358.872 154C312.272 154 277.672 122.4 277.672 77C277.672 31.6 312.272 -1.00136e-05 358.872 -1.00136e-05C405.472 -1.00136e-05 440.272 31.6 440.272 77C440.272 122.4 405.472 154 358.872 154ZM361.672 146.6C391.072 146.6 405.072 120.8 405.072 85.6C405.072 38.8 386.672 7.19999 356.072 7.19999C326.872 7.19999 312.672 33.2 312.672 68.4C312.672 115.2 331.072 146.6 361.672 146.6ZM486.434 151C480.034 151 465.234 152 457.634 152H453.634V150H457.634C466.434 150 470.434 145.6 470.434 133.8V20.2C470.434 8.39999 466.434 4 457.634 4H453.634V1.99999H531.234C541.034 1.99999 551.634 1.59999 559.834 0.999989V33.6H557.834V29.6C557.834 17.6 551.034 9.19999 528.034 9.19999H525.034C513.634 9.19999 506.234 10.4 502.234 13V70.2H521.834C541.434 70.2 547.234 65 548.434 53.4L548.834 49.2H550.634V51.2C550.634 58.6 550.034 68 550.034 74.6C550.034 81.2 550.634 90.6 550.634 98V100H548.834L548.434 95.8C547.234 84.2 541.434 78.8 521.834 78.8H502.234V133.8C502.234 145.6 507.434 150 519.034 150H523.034V152H519.034C509.834 152 493.634 151 486.434 151ZM603.347 2.99999C610.947 2.99999 622.347 1.99999 631.947 1.99999H635.947V4H631.947C623.147 4 619.147 8.39999 619.147 20.2V84.4C619.147 125.8 631.947 144.6 660.147 144.6C694.747 144.6 710.547 125.8 710.547 84.4V28.2C710.547 10.6 705.947 4 695.747 4H691.747V1.99999H695.747C701.947 1.99999 709.747 2.99999 715.147 2.99999H715.747C720.147 2.99999 727.347 1.99999 732.947 1.99999H736.947V4H732.947C724.147 4 720.147 10.6 720.147 28.2V84.4C720.147 131.6 699.947 154 658.147 154C610.347 154 587.347 131.6 587.347 84.4V20.2C587.347 8.39999 583.347 4 574.547 4H570.547V1.99999H574.547C584.147 1.99999 595.547 2.99999 603.347 2.99999ZM816.775 151C807.375 151 793.575 152 782.175 152H778.175V150H782.175C795.175 150 800.975 144.6 800.975 129.8V11.6C796.375 9.99999 788.575 9.39999 777.375 9.39999H776.975C754.975 9.39999 747.375 15 744.375 26.4L743.175 30.8H741.175L742.375 26.4C744.575 18.6 747.575 6.19999 749.175 -1.00136e-05C757.375 1.59999 768.375 1.99999 778.175 1.99999H855.375C865.175 1.99999 876.175 1.59999 884.375 -1.00136e-05C885.975 6.19999 888.975 18.6 891.175 26.4L892.375 30.8H890.375L889.175 26.4C886.175 15 879.175 9.39999 858.575 9.39999H856.575C845.175 9.39999 837.375 9.99999 832.575 11.8V129.8C832.575 144.6 838.375 150 851.375 150H855.375V152H851.375C839.975 152 826.175 151 816.775 151ZM929.909 2.99999C937.509 2.99999 948.909 1.99999 958.509 1.99999H962.509V4H958.509C949.709 4 945.709 8.39999 945.709 20.2V84.4C945.709 125.8 958.509 144.6 986.709 144.6C1021.31 144.6 1037.11 125.8 1037.11 84.4V28.2C1037.11 10.6 1032.51 4 1022.31 4H1018.31V1.99999H1022.31C1028.51 1.99999 1036.31 2.99999 1041.71 2.99999H1042.31C1046.71 2.99999 1053.91 1.99999 1059.51 1.99999H1063.51V4H1059.51C1050.71 4 1046.71 10.6 1046.71 28.2V84.4C1046.71 131.6 1026.51 154 984.709 154C936.909 154 913.909 131.6 913.909 84.4V20.2C913.909 8.39999 909.909 4 901.109 4H897.109V1.99999H901.109C910.709 1.99999 922.109 2.99999 929.909 2.99999ZM1106.94 151C1099.34 151 1087.94 152 1078.34 152H1074.34V150H1078.34C1087.14 150 1091.14 145.6 1091.14 133.8V20.2C1091.14 8.39999 1087.14 4 1078.34 4H1074.34V1.99999H1078.34C1087.94 1.99999 1099.34 2.99999 1106.94 2.99999C1121.74 2.99999 1126.74 1.99999 1141.54 1.99999C1176.74 1.99999 1200.74 13 1200.74 38.6C1200.74 61.2 1183.14 74.6 1156.54 77.8C1166.54 78.8 1173.54 82.2 1179.34 92.2L1202.74 131.6C1213.94 150.6 1218.14 150 1222.34 150H1224.74V152H1176.74C1173.34 142.8 1169.94 136 1165.34 127.6L1145.74 92C1139.14 80.2 1136.34 78.6 1127.54 78.6H1122.94V133.8C1122.94 145.6 1128.14 150 1139.74 150H1143.74V152H1139.74C1128.74 152 1115.74 151 1106.94 151ZM1141.34 9.39999C1133.14 9.39999 1126.54 11 1122.94 14.2V70H1139.74C1156.94 70 1166.94 57.6 1166.94 37.2C1166.94 18.2 1156.34 9.39999 1141.34 9.39999ZM1259.48 151C1251.68 151 1240.28 152 1230.68 152H1226.68V150H1230.68C1239.48 150 1243.48 145.6 1243.48 133.8V20.2C1243.48 8.39999 1239.48 4 1230.68 4H1226.68V1.99999H1230.68C1240.28 1.99999 1251.68 2.99999 1259.48 2.99999C1267.08 2.99999 1278.48 1.99999 1288.08 1.99999H1292.08V4H1288.08C1279.28 4 1275.28 8.39999 1275.28 20.2V133.8C1275.28 145.6 1279.28 150 1288.08 150H1292.08V152H1288.08C1278.48 152 1267.08 151 1259.48 151ZM1358.95 7C1342.95 7 1332.95 15.6 1332.95 29C1332.95 64.2 1410.15 48.2 1410.15 104.2C1410.15 133.6 1389.15 154 1358.15 154C1341.35 154 1330.15 150 1321.95 145.2L1318.15 152H1316.35C1315.35 135.2 1314.15 122.6 1309.35 105.4L1311.55 104.8C1321.95 133.8 1338.75 147 1358.15 147C1376.35 147 1389.55 136.4 1389.55 121.2C1389.55 79.8 1312.55 99.6 1312.55 40.8C1312.55 16.6 1331.35 -1.00136e-05 1358.95 -1.00136e-05C1376.15 -1.00136e-05 1386.15 4 1393.55 7.8L1396.15 1.99999H1397.95C1396.75 19.2 1397.15 25.2 1399.55 41.8L1397.35 42.4C1394.15 18 1372.35 7 1358.95 7ZM1492.75 151C1483.35 151 1469.55 152 1458.15 152H1454.15V150H1458.15C1471.15 150 1476.95 144.6 1476.95 129.8V11.6C1472.35 9.99999 1464.55 9.39999 1453.35 9.39999H1452.95C1430.95 9.39999 1423.35 15 1420.35 26.4L1419.15 30.8H1417.15L1418.35 26.4C1420.55 18.6 1423.55 6.19999 1425.15 -1.00136e-05C1433.35 1.59999 1444.35 1.99999 1454.15 1.99999H1531.35C1541.15 1.99999 1552.15 1.59999 1560.35 -1.00136e-05C1561.95 6.19999 1564.95 18.6 1567.15 26.4L1568.35 30.8H1566.35L1565.15 26.4C1562.15 15 1555.15 9.39999 1534.55 9.39999H1532.55C1521.15 9.39999 1513.35 9.99999 1508.55 11.8V129.8C1508.55 144.6 1514.35 150 1527.35 150H1531.35V152H1527.35C1515.95 152 1502.15 151 1492.75 151Z" fill="black"/>
</svg>
